<mxfile host="app.diagrams.net" agent="Mozilla/5.0 (X11; Ubuntu; Linux x86_64; rv:135.0) Gecko/20100101 Firefox/135.0" version="26.0.11">
  <diagram name="Page-1" id="50SsKfQvYK9gx2AvIsU-">
    <mxGraphModel dx="2852" dy="680" grid="1" gridSize="10" guides="1" tooltips="1" connect="1" arrows="1" fold="1" page="1" pageScale="1" pageWidth="850" pageHeight="1100" math="0" shadow="0">
      <root>
        <mxCell id="0" />
        <mxCell id="1" parent="0" />
        <mxCell id="jVFi4coA5AOTTtgQ4oSD-25" value="" style="group" parent="1" vertex="1" connectable="0">
          <mxGeometry x="30" y="630" width="685" height="382" as="geometry" />
        </mxCell>
        <mxCell id="jVFi4coA5AOTTtgQ4oSD-8" style="edgeStyle=orthogonalEdgeStyle;rounded=0;orthogonalLoop=1;jettySize=auto;html=1;entryX=0;entryY=0.25;entryDx=0;entryDy=0;exitX=1;exitY=0.25;exitDx=0;exitDy=0;" parent="jVFi4coA5AOTTtgQ4oSD-25" source="jVFi4coA5AOTTtgQ4oSD-1" target="jVFi4coA5AOTTtgQ4oSD-3" edge="1">
          <mxGeometry relative="1" as="geometry" />
        </mxCell>
        <mxCell id="jVFi4coA5AOTTtgQ4oSD-23" style="edgeStyle=orthogonalEdgeStyle;rounded=0;orthogonalLoop=1;jettySize=auto;html=1;exitX=1;exitY=0.5;exitDx=0;exitDy=0;entryX=0;entryY=0.5;entryDx=0;entryDy=0;" parent="jVFi4coA5AOTTtgQ4oSD-25" source="jVFi4coA5AOTTtgQ4oSD-1" target="jVFi4coA5AOTTtgQ4oSD-3" edge="1">
          <mxGeometry relative="1" as="geometry" />
        </mxCell>
        <mxCell id="jVFi4coA5AOTTtgQ4oSD-1" value="&lt;div&gt;next_count = count;&lt;/div&gt;&lt;div&gt;&amp;nbsp; &amp;nbsp; &amp;nbsp; &amp;nbsp; next_rollover = rollover_flag;&lt;/div&gt;&lt;div&gt;&amp;nbsp; &amp;nbsp; &amp;nbsp; &amp;nbsp; if (clear) begin&lt;/div&gt;&lt;div&gt;&amp;nbsp; &amp;nbsp; &amp;nbsp; &amp;nbsp; &amp;nbsp; &amp;nbsp; next_count = 0;&lt;/div&gt;&lt;div&gt;&amp;nbsp; &amp;nbsp; &amp;nbsp; &amp;nbsp; end else if (count_enable) begin&lt;/div&gt;&lt;div&gt;&amp;nbsp; &amp;nbsp; &amp;nbsp; &amp;nbsp; &amp;nbsp; &amp;nbsp; if(next_count == rollover_val)&lt;/div&gt;&lt;div&gt;&amp;nbsp; &amp;nbsp; &amp;nbsp; &amp;nbsp; &amp;nbsp; &amp;nbsp; &amp;nbsp; &amp;nbsp; next_count = 1;&amp;nbsp;&lt;/div&gt;&lt;div&gt;&amp;nbsp; &amp;nbsp; &amp;nbsp; &amp;nbsp; &amp;nbsp; &amp;nbsp; else&amp;nbsp;&lt;/div&gt;&lt;div&gt;&amp;nbsp; &amp;nbsp; &amp;nbsp; &amp;nbsp; &amp;nbsp; &amp;nbsp; &amp;nbsp; &amp;nbsp; next_count = next_count + 1;&lt;/div&gt;&lt;div&gt;&amp;nbsp; &amp;nbsp; &amp;nbsp; &amp;nbsp; end&lt;/div&gt;&lt;div&gt;&amp;nbsp; &amp;nbsp; &amp;nbsp; &amp;nbsp; if (next_count == rollover_val) begin&lt;/div&gt;&lt;div&gt;&amp;nbsp; &amp;nbsp; &amp;nbsp; &amp;nbsp; &amp;nbsp; &amp;nbsp; next_rollover = 1;&lt;/div&gt;&lt;div&gt;&amp;nbsp; &amp;nbsp; &amp;nbsp; &amp;nbsp; end else&lt;/div&gt;&lt;div&gt;&amp;nbsp; &amp;nbsp; &amp;nbsp; &amp;nbsp; &amp;nbsp; &amp;nbsp; next_rollover = 0;&lt;/div&gt;" style="rounded=0;whiteSpace=wrap;html=1;align=left;verticalAlign=top;" parent="jVFi4coA5AOTTtgQ4oSD-25" vertex="1">
          <mxGeometry x="115" y="92" width="230" height="290" as="geometry" />
        </mxCell>
        <mxCell id="jVFi4coA5AOTTtgQ4oSD-5" value="" style="group" parent="jVFi4coA5AOTTtgQ4oSD-25" vertex="1" connectable="0">
          <mxGeometry x="465" y="132" width="120" height="180" as="geometry" />
        </mxCell>
        <mxCell id="jVFi4coA5AOTTtgQ4oSD-6" style="edgeStyle=orthogonalEdgeStyle;rounded=0;orthogonalLoop=1;jettySize=auto;html=1;" parent="jVFi4coA5AOTTtgQ4oSD-5" source="jVFi4coA5AOTTtgQ4oSD-3" edge="1">
          <mxGeometry relative="1" as="geometry">
            <mxPoint x="190" y="90" as="targetPoint" />
          </mxGeometry>
        </mxCell>
        <mxCell id="jVFi4coA5AOTTtgQ4oSD-13" style="edgeStyle=orthogonalEdgeStyle;rounded=0;orthogonalLoop=1;jettySize=auto;html=1;exitX=1;exitY=0.75;exitDx=0;exitDy=0;" parent="jVFi4coA5AOTTtgQ4oSD-5" source="jVFi4coA5AOTTtgQ4oSD-3" edge="1">
          <mxGeometry relative="1" as="geometry">
            <mxPoint x="190" y="134.72413793103442" as="targetPoint" />
          </mxGeometry>
        </mxCell>
        <mxCell id="jVFi4coA5AOTTtgQ4oSD-3" value="FF" style="rounded=0;whiteSpace=wrap;html=1;" parent="jVFi4coA5AOTTtgQ4oSD-5" vertex="1">
          <mxGeometry width="120" height="180" as="geometry" />
        </mxCell>
        <mxCell id="jVFi4coA5AOTTtgQ4oSD-4" value="" style="triangle;whiteSpace=wrap;html=1;" parent="jVFi4coA5AOTTtgQ4oSD-5" vertex="1">
          <mxGeometry y="130" width="30" height="40" as="geometry" />
        </mxCell>
        <mxCell id="jVFi4coA5AOTTtgQ4oSD-7" value="count_out[3:0]" style="text;html=1;align=center;verticalAlign=middle;resizable=0;points=[];autosize=1;strokeColor=none;fillColor=none;" parent="jVFi4coA5AOTTtgQ4oSD-25" vertex="1">
          <mxGeometry x="585" y="182" width="100" height="30" as="geometry" />
        </mxCell>
        <mxCell id="jVFi4coA5AOTTtgQ4oSD-9" value="next_count[3:0]" style="text;html=1;align=center;verticalAlign=middle;resizable=0;points=[];autosize=1;strokeColor=none;fillColor=none;" parent="jVFi4coA5AOTTtgQ4oSD-25" vertex="1">
          <mxGeometry x="345" y="120" width="110" height="30" as="geometry" />
        </mxCell>
        <mxCell id="jVFi4coA5AOTTtgQ4oSD-10" value="clk" style="text;html=1;align=center;verticalAlign=middle;resizable=0;points=[];autosize=1;strokeColor=none;fillColor=none;" parent="jVFi4coA5AOTTtgQ4oSD-25" vertex="1">
          <mxGeometry x="425" y="262" width="40" height="30" as="geometry" />
        </mxCell>
        <mxCell id="jVFi4coA5AOTTtgQ4oSD-12" style="edgeStyle=orthogonalEdgeStyle;rounded=0;orthogonalLoop=1;jettySize=auto;html=1;entryX=0.5;entryY=1;entryDx=0;entryDy=0;" parent="jVFi4coA5AOTTtgQ4oSD-25" source="jVFi4coA5AOTTtgQ4oSD-11" target="jVFi4coA5AOTTtgQ4oSD-3" edge="1">
          <mxGeometry relative="1" as="geometry" />
        </mxCell>
        <mxCell id="jVFi4coA5AOTTtgQ4oSD-11" value="n_rst" style="text;html=1;align=center;verticalAlign=middle;resizable=0;points=[];autosize=1;strokeColor=none;fillColor=none;" parent="jVFi4coA5AOTTtgQ4oSD-25" vertex="1">
          <mxGeometry x="500" y="352" width="50" height="30" as="geometry" />
        </mxCell>
        <mxCell id="jVFi4coA5AOTTtgQ4oSD-14" value="rollover_flag" style="text;html=1;align=center;verticalAlign=middle;resizable=0;points=[];autosize=1;strokeColor=none;fillColor=none;" parent="jVFi4coA5AOTTtgQ4oSD-25" vertex="1">
          <mxGeometry x="585" y="232" width="90" height="30" as="geometry" />
        </mxCell>
        <mxCell id="jVFi4coA5AOTTtgQ4oSD-16" style="edgeStyle=orthogonalEdgeStyle;rounded=0;orthogonalLoop=1;jettySize=auto;html=1;entryX=0.5;entryY=0;entryDx=0;entryDy=0;" parent="jVFi4coA5AOTTtgQ4oSD-25" source="jVFi4coA5AOTTtgQ4oSD-15" target="jVFi4coA5AOTTtgQ4oSD-1" edge="1">
          <mxGeometry relative="1" as="geometry" />
        </mxCell>
        <mxCell id="jVFi4coA5AOTTtgQ4oSD-15" value="count_enable" style="text;html=1;align=center;verticalAlign=middle;resizable=0;points=[];autosize=1;strokeColor=none;fillColor=none;" parent="jVFi4coA5AOTTtgQ4oSD-25" vertex="1">
          <mxGeometry x="200" y="2" width="100" height="30" as="geometry" />
        </mxCell>
        <mxCell id="jVFi4coA5AOTTtgQ4oSD-18" style="edgeStyle=orthogonalEdgeStyle;rounded=0;orthogonalLoop=1;jettySize=auto;html=1;entryX=0.75;entryY=0;entryDx=0;entryDy=0;" parent="jVFi4coA5AOTTtgQ4oSD-25" source="jVFi4coA5AOTTtgQ4oSD-17" target="jVFi4coA5AOTTtgQ4oSD-1" edge="1">
          <mxGeometry relative="1" as="geometry" />
        </mxCell>
        <mxCell id="jVFi4coA5AOTTtgQ4oSD-17" value="clear" style="text;html=1;align=center;verticalAlign=middle;resizable=0;points=[];autosize=1;strokeColor=none;fillColor=none;" parent="jVFi4coA5AOTTtgQ4oSD-25" vertex="1">
          <mxGeometry x="320" width="50" height="30" as="geometry" />
        </mxCell>
        <mxCell id="jVFi4coA5AOTTtgQ4oSD-20" style="edgeStyle=orthogonalEdgeStyle;rounded=0;orthogonalLoop=1;jettySize=auto;html=1;entryX=0;entryY=0.25;entryDx=0;entryDy=0;" parent="jVFi4coA5AOTTtgQ4oSD-25" source="jVFi4coA5AOTTtgQ4oSD-19" target="jVFi4coA5AOTTtgQ4oSD-1" edge="1">
          <mxGeometry relative="1" as="geometry">
            <Array as="points">
              <mxPoint x="45" y="165" />
            </Array>
          </mxGeometry>
        </mxCell>
        <mxCell id="jVFi4coA5AOTTtgQ4oSD-19" value="rollover_val[3:0]" style="text;html=1;align=center;verticalAlign=middle;resizable=0;points=[];autosize=1;strokeColor=none;fillColor=none;" parent="jVFi4coA5AOTTtgQ4oSD-25" vertex="1">
          <mxGeometry y="20" width="110" height="30" as="geometry" />
        </mxCell>
        <mxCell id="jVFi4coA5AOTTtgQ4oSD-24" value="next_rollover" style="text;html=1;align=center;verticalAlign=middle;resizable=0;points=[];autosize=1;strokeColor=none;fillColor=none;" parent="jVFi4coA5AOTTtgQ4oSD-25" vertex="1">
          <mxGeometry x="345" y="240" width="90" height="30" as="geometry" />
        </mxCell>
        <mxCell id="jVFi4coA5AOTTtgQ4oSD-27" style="edgeStyle=orthogonalEdgeStyle;rounded=0;orthogonalLoop=1;jettySize=auto;html=1;entryX=0;entryY=0.25;entryDx=0;entryDy=0;exitX=1;exitY=0.25;exitDx=0;exitDy=0;" parent="1" source="jVFi4coA5AOTTtgQ4oSD-29" edge="1">
          <mxGeometry relative="1" as="geometry">
            <mxPoint x="239.5" y="1392.25" as="sourcePoint" />
            <mxPoint x="474.5" y="1521.75" as="targetPoint" />
          </mxGeometry>
        </mxCell>
        <mxCell id="jVFi4coA5AOTTtgQ4oSD-29" value="&lt;div&gt;if (const_select)&lt;/div&gt;&lt;div&gt;&lt;span style=&quot;white-space: pre;&quot;&gt;&#x9;&lt;/span&gt;data_const = 8&#39;hAA;&lt;br&gt;&lt;/div&gt;&lt;div&gt;else&lt;/div&gt;&lt;div&gt;&lt;span style=&quot;white-space: pre;&quot;&gt;&#x9;&lt;/span&gt;data_const = 8&#39;hBB;&lt;br&gt;&lt;/div&gt;" style="rounded=0;whiteSpace=wrap;html=1;align=left;verticalAlign=top;" parent="1" vertex="1">
          <mxGeometry x="10" y="1350" width="230" height="214" as="geometry" />
        </mxCell>
        <mxCell id="jVFi4coA5AOTTtgQ4oSD-30" value="" style="group" parent="1" vertex="1" connectable="0">
          <mxGeometry x="475" y="1488" width="120" height="180" as="geometry" />
        </mxCell>
        <mxCell id="jVFi4coA5AOTTtgQ4oSD-31" style="edgeStyle=orthogonalEdgeStyle;rounded=0;orthogonalLoop=1;jettySize=auto;html=1;" parent="jVFi4coA5AOTTtgQ4oSD-30" source="jVFi4coA5AOTTtgQ4oSD-33" edge="1">
          <mxGeometry relative="1" as="geometry">
            <mxPoint x="190" y="90" as="targetPoint" />
          </mxGeometry>
        </mxCell>
        <mxCell id="jVFi4coA5AOTTtgQ4oSD-32" style="edgeStyle=orthogonalEdgeStyle;rounded=0;orthogonalLoop=1;jettySize=auto;html=1;exitX=1;exitY=0.75;exitDx=0;exitDy=0;" parent="jVFi4coA5AOTTtgQ4oSD-30" source="jVFi4coA5AOTTtgQ4oSD-33" edge="1">
          <mxGeometry relative="1" as="geometry">
            <mxPoint x="190" y="134.72413793103442" as="targetPoint" />
          </mxGeometry>
        </mxCell>
        <mxCell id="jVFi4coA5AOTTtgQ4oSD-33" value="FSM" style="rounded=0;whiteSpace=wrap;html=1;" parent="jVFi4coA5AOTTtgQ4oSD-30" vertex="1">
          <mxGeometry width="120" height="180" as="geometry" />
        </mxCell>
        <mxCell id="jVFi4coA5AOTTtgQ4oSD-34" value="" style="triangle;whiteSpace=wrap;html=1;" parent="jVFi4coA5AOTTtgQ4oSD-30" vertex="1">
          <mxGeometry y="130" width="30" height="40" as="geometry" />
        </mxCell>
        <mxCell id="jVFi4coA5AOTTtgQ4oSD-35" value="data_out[7:0]" style="text;html=1;align=center;verticalAlign=middle;resizable=0;points=[];autosize=1;strokeColor=none;fillColor=none;" parent="1" vertex="1">
          <mxGeometry x="600" y="1538" width="90" height="30" as="geometry" />
        </mxCell>
        <mxCell id="jVFi4coA5AOTTtgQ4oSD-36" value="data_const[7:0]" style="text;html=1;align=center;verticalAlign=middle;resizable=0;points=[];autosize=1;strokeColor=none;fillColor=none;" parent="1" vertex="1">
          <mxGeometry x="250" y="1370" width="110" height="30" as="geometry" />
        </mxCell>
        <mxCell id="jVFi4coA5AOTTtgQ4oSD-37" value="clk" style="text;html=1;align=center;verticalAlign=middle;resizable=0;points=[];autosize=1;strokeColor=none;fillColor=none;" parent="1" vertex="1">
          <mxGeometry x="435" y="1618" width="40" height="30" as="geometry" />
        </mxCell>
        <mxCell id="jVFi4coA5AOTTtgQ4oSD-38" style="edgeStyle=orthogonalEdgeStyle;rounded=0;orthogonalLoop=1;jettySize=auto;html=1;entryX=0.5;entryY=1;entryDx=0;entryDy=0;" parent="1" source="jVFi4coA5AOTTtgQ4oSD-39" target="jVFi4coA5AOTTtgQ4oSD-33" edge="1">
          <mxGeometry relative="1" as="geometry" />
        </mxCell>
        <mxCell id="jVFi4coA5AOTTtgQ4oSD-39" value="n_rst" style="text;html=1;align=center;verticalAlign=middle;resizable=0;points=[];autosize=1;strokeColor=none;fillColor=none;" parent="1" vertex="1">
          <mxGeometry x="510" y="1708" width="50" height="30" as="geometry" />
        </mxCell>
        <mxCell id="jVFi4coA5AOTTtgQ4oSD-40" value="load" style="text;html=1;align=center;verticalAlign=middle;resizable=0;points=[];autosize=1;strokeColor=none;fillColor=none;" parent="1" vertex="1">
          <mxGeometry x="615" y="1588" width="50" height="30" as="geometry" />
        </mxCell>
        <mxCell id="jVFi4coA5AOTTtgQ4oSD-48" style="edgeStyle=orthogonalEdgeStyle;rounded=0;orthogonalLoop=1;jettySize=auto;html=1;entryX=0.5;entryY=0;entryDx=0;entryDy=0;" parent="1" source="jVFi4coA5AOTTtgQ4oSD-33" target="jVFi4coA5AOTTtgQ4oSD-29" edge="1">
          <mxGeometry relative="1" as="geometry">
            <Array as="points">
              <mxPoint x="535" y="1310" />
              <mxPoint x="135" y="1310" />
              <mxPoint x="135" y="1350" />
            </Array>
          </mxGeometry>
        </mxCell>
        <mxCell id="jVFi4coA5AOTTtgQ4oSD-49" value="const_select" style="text;html=1;align=center;verticalAlign=middle;resizable=0;points=[];autosize=1;strokeColor=none;fillColor=none;" parent="1" vertex="1">
          <mxGeometry x="310" y="1280" width="90" height="30" as="geometry" />
        </mxCell>
        <mxCell id="kdzPkUjt_pwpQdsMTj5A-2" style="edgeStyle=orthogonalEdgeStyle;rounded=0;orthogonalLoop=1;jettySize=auto;html=1;entryX=0.75;entryY=0;entryDx=0;entryDy=0;" edge="1" parent="1" source="kdzPkUjt_pwpQdsMTj5A-1" target="jVFi4coA5AOTTtgQ4oSD-33">
          <mxGeometry relative="1" as="geometry" />
        </mxCell>
        <mxCell id="kdzPkUjt_pwpQdsMTj5A-1" value="User Input" style="rounded=0;whiteSpace=wrap;html=1;align=left;verticalAlign=top;" vertex="1" parent="1">
          <mxGeometry x="620" y="1220" width="230" height="214" as="geometry" />
        </mxCell>
        <mxCell id="kdzPkUjt_pwpQdsMTj5A-4" style="edgeStyle=orthogonalEdgeStyle;rounded=0;orthogonalLoop=1;jettySize=auto;html=1;entryX=0;entryY=0.5;entryDx=0;entryDy=0;" edge="1" parent="1" source="kdzPkUjt_pwpQdsMTj5A-3" target="jVFi4coA5AOTTtgQ4oSD-33">
          <mxGeometry relative="1" as="geometry" />
        </mxCell>
        <mxCell id="kdzPkUjt_pwpQdsMTj5A-3" value="case (state)&lt;br&gt;&amp;nbsp;&amp;nbsp;&amp;nbsp;&amp;nbsp;&amp;nbsp;&amp;nbsp;&amp;nbsp;&amp;nbsp;&amp;nbsp;&amp;nbsp;&amp;nbsp; state_idle: next_state = (start ? state_start : state_idle);&lt;br&gt;&lt;br&gt;&amp;nbsp;&amp;nbsp;&amp;nbsp;&amp;nbsp;&amp;nbsp;&amp;nbsp;&amp;nbsp;&amp;nbsp;&amp;nbsp;&amp;nbsp;&amp;nbsp; state_start:&lt;br&gt;&lt;br&gt;&amp;nbsp;&amp;nbsp;&amp;nbsp;&amp;nbsp;&amp;nbsp;&amp;nbsp;&amp;nbsp;&amp;nbsp;&amp;nbsp;&amp;nbsp;&amp;nbsp; state_middle: next_state = end_packet ? state_done : state_middle;&lt;br&gt;&lt;br&gt;&amp;nbsp;&amp;nbsp;&amp;nbsp;&amp;nbsp;&amp;nbsp;&amp;nbsp;&amp;nbsp;&amp;nbsp;&amp;nbsp;&amp;nbsp;&amp;nbsp; state_done:&lt;br&gt;&lt;br&gt;&amp;nbsp;&amp;nbsp;&amp;nbsp;&amp;nbsp;&amp;nbsp;&amp;nbsp;&amp;nbsp;&amp;nbsp;&amp;nbsp;&amp;nbsp;&amp;nbsp; default: next_state = state_idle; &lt;br&gt;&amp;nbsp;&amp;nbsp;&amp;nbsp;&amp;nbsp;&amp;nbsp;&amp;nbsp;&amp;nbsp; endcase" style="rounded=0;whiteSpace=wrap;html=1;align=left;verticalAlign=top;" vertex="1" parent="1">
          <mxGeometry x="10" y="1618" width="230" height="214" as="geometry" />
        </mxCell>
        <mxCell id="kdzPkUjt_pwpQdsMTj5A-5" value="next_state" style="text;html=1;align=center;verticalAlign=middle;resizable=0;points=[];autosize=1;strokeColor=none;fillColor=none;" vertex="1" parent="1">
          <mxGeometry x="260" y="1690" width="80" height="30" as="geometry" />
        </mxCell>
        <mxCell id="kdzPkUjt_pwpQdsMTj5A-28" value="" style="group" vertex="1" connectable="0" parent="1">
          <mxGeometry x="10" y="70" width="685" height="382" as="geometry" />
        </mxCell>
        <mxCell id="kdzPkUjt_pwpQdsMTj5A-29" style="edgeStyle=orthogonalEdgeStyle;rounded=0;orthogonalLoop=1;jettySize=auto;html=1;entryX=0;entryY=0.25;entryDx=0;entryDy=0;exitX=1;exitY=0.25;exitDx=0;exitDy=0;" edge="1" parent="kdzPkUjt_pwpQdsMTj5A-28" source="kdzPkUjt_pwpQdsMTj5A-31" target="kdzPkUjt_pwpQdsMTj5A-35">
          <mxGeometry relative="1" as="geometry" />
        </mxCell>
        <mxCell id="kdzPkUjt_pwpQdsMTj5A-30" style="edgeStyle=orthogonalEdgeStyle;rounded=0;orthogonalLoop=1;jettySize=auto;html=1;exitX=1;exitY=0.5;exitDx=0;exitDy=0;entryX=0;entryY=0.5;entryDx=0;entryDy=0;" edge="1" parent="kdzPkUjt_pwpQdsMTj5A-28" source="kdzPkUjt_pwpQdsMTj5A-31" target="kdzPkUjt_pwpQdsMTj5A-35">
          <mxGeometry relative="1" as="geometry" />
        </mxCell>
        <mxCell id="kdzPkUjt_pwpQdsMTj5A-31" value="&lt;div&gt;next_count = count;&lt;/div&gt;&lt;div&gt;&amp;nbsp; &amp;nbsp; &amp;nbsp; &amp;nbsp; next_rollover = rollover_flag;&lt;/div&gt;&lt;div&gt;&amp;nbsp; &amp;nbsp; &amp;nbsp; &amp;nbsp; if (clear) begin&lt;/div&gt;&lt;div&gt;&amp;nbsp; &amp;nbsp; &amp;nbsp; &amp;nbsp; &amp;nbsp; &amp;nbsp; next_count = 0;&lt;/div&gt;&lt;div&gt;&amp;nbsp; &amp;nbsp; &amp;nbsp; &amp;nbsp; end else if (count_enable) begin&lt;/div&gt;&lt;div&gt;&amp;nbsp; &amp;nbsp; &amp;nbsp; &amp;nbsp; &amp;nbsp; &amp;nbsp; if(next_count == rollover_val)&lt;/div&gt;&lt;div&gt;&amp;nbsp; &amp;nbsp; &amp;nbsp; &amp;nbsp; &amp;nbsp; &amp;nbsp; &amp;nbsp; &amp;nbsp; next_count = 1;&amp;nbsp;&lt;/div&gt;&lt;div&gt;&amp;nbsp; &amp;nbsp; &amp;nbsp; &amp;nbsp; &amp;nbsp; &amp;nbsp; else&amp;nbsp;&lt;/div&gt;&lt;div&gt;&amp;nbsp; &amp;nbsp; &amp;nbsp; &amp;nbsp; &amp;nbsp; &amp;nbsp; &amp;nbsp; &amp;nbsp; next_count = next_count + 1;&lt;/div&gt;&lt;div&gt;&amp;nbsp; &amp;nbsp; &amp;nbsp; &amp;nbsp; end&lt;/div&gt;&lt;div&gt;&amp;nbsp; &amp;nbsp; &amp;nbsp; &amp;nbsp; if (next_count == rollover_val) begin&lt;/div&gt;&lt;div&gt;&amp;nbsp; &amp;nbsp; &amp;nbsp; &amp;nbsp; &amp;nbsp; &amp;nbsp; next_rollover = 1;&lt;/div&gt;&lt;div&gt;&amp;nbsp; &amp;nbsp; &amp;nbsp; &amp;nbsp; end else&lt;/div&gt;&lt;div&gt;&amp;nbsp; &amp;nbsp; &amp;nbsp; &amp;nbsp; &amp;nbsp; &amp;nbsp; next_rollover = 0;&lt;/div&gt;" style="rounded=0;whiteSpace=wrap;html=1;align=left;verticalAlign=top;" vertex="1" parent="kdzPkUjt_pwpQdsMTj5A-28">
          <mxGeometry x="115" y="92" width="230" height="290" as="geometry" />
        </mxCell>
        <mxCell id="kdzPkUjt_pwpQdsMTj5A-32" value="" style="group" vertex="1" connectable="0" parent="kdzPkUjt_pwpQdsMTj5A-28">
          <mxGeometry x="465" y="132" width="120" height="180" as="geometry" />
        </mxCell>
        <mxCell id="kdzPkUjt_pwpQdsMTj5A-33" style="edgeStyle=orthogonalEdgeStyle;rounded=0;orthogonalLoop=1;jettySize=auto;html=1;" edge="1" parent="kdzPkUjt_pwpQdsMTj5A-32" source="kdzPkUjt_pwpQdsMTj5A-35">
          <mxGeometry relative="1" as="geometry">
            <mxPoint x="190" y="90" as="targetPoint" />
          </mxGeometry>
        </mxCell>
        <mxCell id="kdzPkUjt_pwpQdsMTj5A-34" style="edgeStyle=orthogonalEdgeStyle;rounded=0;orthogonalLoop=1;jettySize=auto;html=1;exitX=1;exitY=0.75;exitDx=0;exitDy=0;" edge="1" parent="kdzPkUjt_pwpQdsMTj5A-32" source="kdzPkUjt_pwpQdsMTj5A-35">
          <mxGeometry relative="1" as="geometry">
            <mxPoint x="190" y="134.72413793103442" as="targetPoint" />
          </mxGeometry>
        </mxCell>
        <mxCell id="kdzPkUjt_pwpQdsMTj5A-35" value="FF" style="rounded=0;whiteSpace=wrap;html=1;" vertex="1" parent="kdzPkUjt_pwpQdsMTj5A-32">
          <mxGeometry width="120" height="180" as="geometry" />
        </mxCell>
        <mxCell id="kdzPkUjt_pwpQdsMTj5A-36" value="" style="triangle;whiteSpace=wrap;html=1;" vertex="1" parent="kdzPkUjt_pwpQdsMTj5A-32">
          <mxGeometry y="130" width="30" height="40" as="geometry" />
        </mxCell>
        <mxCell id="kdzPkUjt_pwpQdsMTj5A-37" value="count_out[3:0]" style="text;html=1;align=center;verticalAlign=middle;resizable=0;points=[];autosize=1;strokeColor=none;fillColor=none;" vertex="1" parent="kdzPkUjt_pwpQdsMTj5A-28">
          <mxGeometry x="585" y="182" width="100" height="30" as="geometry" />
        </mxCell>
        <mxCell id="kdzPkUjt_pwpQdsMTj5A-38" value="next_count[3:0]" style="text;html=1;align=center;verticalAlign=middle;resizable=0;points=[];autosize=1;strokeColor=none;fillColor=none;" vertex="1" parent="kdzPkUjt_pwpQdsMTj5A-28">
          <mxGeometry x="345" y="120" width="110" height="30" as="geometry" />
        </mxCell>
        <mxCell id="kdzPkUjt_pwpQdsMTj5A-39" value="clk" style="text;html=1;align=center;verticalAlign=middle;resizable=0;points=[];autosize=1;strokeColor=none;fillColor=none;" vertex="1" parent="kdzPkUjt_pwpQdsMTj5A-28">
          <mxGeometry x="425" y="262" width="40" height="30" as="geometry" />
        </mxCell>
        <mxCell id="kdzPkUjt_pwpQdsMTj5A-40" style="edgeStyle=orthogonalEdgeStyle;rounded=0;orthogonalLoop=1;jettySize=auto;html=1;entryX=0.5;entryY=1;entryDx=0;entryDy=0;" edge="1" parent="kdzPkUjt_pwpQdsMTj5A-28" source="kdzPkUjt_pwpQdsMTj5A-41" target="kdzPkUjt_pwpQdsMTj5A-35">
          <mxGeometry relative="1" as="geometry" />
        </mxCell>
        <mxCell id="kdzPkUjt_pwpQdsMTj5A-41" value="n_rst" style="text;html=1;align=center;verticalAlign=middle;resizable=0;points=[];autosize=1;strokeColor=none;fillColor=none;" vertex="1" parent="kdzPkUjt_pwpQdsMTj5A-28">
          <mxGeometry x="500" y="352" width="50" height="30" as="geometry" />
        </mxCell>
        <mxCell id="kdzPkUjt_pwpQdsMTj5A-42" value="rollover_flag" style="text;html=1;align=center;verticalAlign=middle;resizable=0;points=[];autosize=1;strokeColor=none;fillColor=none;" vertex="1" parent="kdzPkUjt_pwpQdsMTj5A-28">
          <mxGeometry x="585" y="232" width="90" height="30" as="geometry" />
        </mxCell>
        <mxCell id="kdzPkUjt_pwpQdsMTj5A-43" style="edgeStyle=orthogonalEdgeStyle;rounded=0;orthogonalLoop=1;jettySize=auto;html=1;entryX=0.5;entryY=0;entryDx=0;entryDy=0;" edge="1" parent="kdzPkUjt_pwpQdsMTj5A-28" source="kdzPkUjt_pwpQdsMTj5A-44" target="kdzPkUjt_pwpQdsMTj5A-31">
          <mxGeometry relative="1" as="geometry" />
        </mxCell>
        <mxCell id="kdzPkUjt_pwpQdsMTj5A-44" value="count_enable" style="text;html=1;align=center;verticalAlign=middle;resizable=0;points=[];autosize=1;strokeColor=none;fillColor=none;" vertex="1" parent="kdzPkUjt_pwpQdsMTj5A-28">
          <mxGeometry x="200" y="2" width="100" height="30" as="geometry" />
        </mxCell>
        <mxCell id="kdzPkUjt_pwpQdsMTj5A-45" style="edgeStyle=orthogonalEdgeStyle;rounded=0;orthogonalLoop=1;jettySize=auto;html=1;entryX=0.75;entryY=0;entryDx=0;entryDy=0;" edge="1" parent="kdzPkUjt_pwpQdsMTj5A-28" source="kdzPkUjt_pwpQdsMTj5A-46" target="kdzPkUjt_pwpQdsMTj5A-31">
          <mxGeometry relative="1" as="geometry" />
        </mxCell>
        <mxCell id="kdzPkUjt_pwpQdsMTj5A-46" value="clear" style="text;html=1;align=center;verticalAlign=middle;resizable=0;points=[];autosize=1;strokeColor=none;fillColor=none;" vertex="1" parent="kdzPkUjt_pwpQdsMTj5A-28">
          <mxGeometry x="320" width="50" height="30" as="geometry" />
        </mxCell>
        <mxCell id="kdzPkUjt_pwpQdsMTj5A-47" style="edgeStyle=orthogonalEdgeStyle;rounded=0;orthogonalLoop=1;jettySize=auto;html=1;entryX=0;entryY=0.25;entryDx=0;entryDy=0;" edge="1" parent="kdzPkUjt_pwpQdsMTj5A-28" source="kdzPkUjt_pwpQdsMTj5A-48" target="kdzPkUjt_pwpQdsMTj5A-31">
          <mxGeometry relative="1" as="geometry">
            <Array as="points">
              <mxPoint x="45" y="165" />
            </Array>
          </mxGeometry>
        </mxCell>
        <mxCell id="kdzPkUjt_pwpQdsMTj5A-48" value="rollover_val[3:0]" style="text;html=1;align=center;verticalAlign=middle;resizable=0;points=[];autosize=1;strokeColor=none;fillColor=none;" vertex="1" parent="kdzPkUjt_pwpQdsMTj5A-28">
          <mxGeometry y="20" width="110" height="30" as="geometry" />
        </mxCell>
        <mxCell id="kdzPkUjt_pwpQdsMTj5A-49" value="next_rollover" style="text;html=1;align=center;verticalAlign=middle;resizable=0;points=[];autosize=1;strokeColor=none;fillColor=none;" vertex="1" parent="kdzPkUjt_pwpQdsMTj5A-28">
          <mxGeometry x="345" y="240" width="90" height="30" as="geometry" />
        </mxCell>
        <mxCell id="kdzPkUjt_pwpQdsMTj5A-52" style="edgeStyle=orthogonalEdgeStyle;rounded=0;orthogonalLoop=1;jettySize=auto;html=1;entryX=0.5;entryY=0;entryDx=0;entryDy=0;" edge="1" parent="1" source="kdzPkUjt_pwpQdsMTj5A-50" target="kdzPkUjt_pwpQdsMTj5A-51">
          <mxGeometry relative="1" as="geometry" />
        </mxCell>
        <mxCell id="kdzPkUjt_pwpQdsMTj5A-50" value="state_idle" style="ellipse;whiteSpace=wrap;html=1;" vertex="1" parent="1">
          <mxGeometry x="-600" y="1110" width="120" height="80" as="geometry" />
        </mxCell>
        <mxCell id="kdzPkUjt_pwpQdsMTj5A-54" style="edgeStyle=orthogonalEdgeStyle;rounded=0;orthogonalLoop=1;jettySize=auto;html=1;" edge="1" parent="1" source="kdzPkUjt_pwpQdsMTj5A-51" target="kdzPkUjt_pwpQdsMTj5A-55">
          <mxGeometry relative="1" as="geometry">
            <mxPoint x="-280" y="1310" as="targetPoint" />
          </mxGeometry>
        </mxCell>
        <mxCell id="kdzPkUjt_pwpQdsMTj5A-74" style="edgeStyle=orthogonalEdgeStyle;rounded=0;orthogonalLoop=1;jettySize=auto;html=1;entryX=1;entryY=0.5;entryDx=0;entryDy=0;" edge="1" parent="1" source="kdzPkUjt_pwpQdsMTj5A-51" target="kdzPkUjt_pwpQdsMTj5A-73">
          <mxGeometry relative="1" as="geometry">
            <Array as="points">
              <mxPoint x="-380" y="1440" />
              <mxPoint x="-340" y="1440" />
              <mxPoint x="-340" y="1528" />
            </Array>
          </mxGeometry>
        </mxCell>
        <mxCell id="kdzPkUjt_pwpQdsMTj5A-51" value="state_start" style="ellipse;whiteSpace=wrap;html=1;" vertex="1" parent="1">
          <mxGeometry x="-440" y="1270" width="120" height="80" as="geometry" />
        </mxCell>
        <mxCell id="kdzPkUjt_pwpQdsMTj5A-53" value="start = 1" style="text;html=1;align=center;verticalAlign=middle;resizable=0;points=[];autosize=1;strokeColor=none;fillColor=none;" vertex="1" parent="1">
          <mxGeometry x="-380" y="1190" width="70" height="30" as="geometry" />
        </mxCell>
        <mxCell id="kdzPkUjt_pwpQdsMTj5A-55" value="&lt;div align=&quot;left&quot;&gt;const_select = 0; (SOF)&lt;/div&gt;&lt;div align=&quot;left&quot;&gt;get data_const for SOF &lt;br&gt;&lt;/div&gt;&lt;div align=&quot;left&quot;&gt;&lt;br&gt;&lt;/div&gt;&lt;div align=&quot;left&quot;&gt;data_out = data_const?&lt;/div&gt;&lt;div align=&quot;left&quot;&gt;load = 1&lt;/div&gt;" style="rounded=0;whiteSpace=wrap;html=1;align=left;verticalAlign=top;" vertex="1" parent="1">
          <mxGeometry x="-260" y="1200" width="120" height="190" as="geometry" />
        </mxCell>
        <mxCell id="kdzPkUjt_pwpQdsMTj5A-57" style="edgeStyle=orthogonalEdgeStyle;rounded=0;orthogonalLoop=1;jettySize=auto;html=1;entryX=0.5;entryY=0;entryDx=0;entryDy=0;" edge="1" parent="1" source="kdzPkUjt_pwpQdsMTj5A-56" target="kdzPkUjt_pwpQdsMTj5A-50">
          <mxGeometry relative="1" as="geometry" />
        </mxCell>
        <mxCell id="kdzPkUjt_pwpQdsMTj5A-56" value="~n_rst" style="text;html=1;align=center;verticalAlign=middle;resizable=0;points=[];autosize=1;strokeColor=none;fillColor=none;" vertex="1" parent="1">
          <mxGeometry x="-670" y="1058" width="60" height="30" as="geometry" />
        </mxCell>
        <mxCell id="kdzPkUjt_pwpQdsMTj5A-63" style="edgeStyle=orthogonalEdgeStyle;rounded=0;orthogonalLoop=1;jettySize=auto;html=1;entryX=0.5;entryY=0;entryDx=0;entryDy=0;" edge="1" parent="1" source="kdzPkUjt_pwpQdsMTj5A-59" target="kdzPkUjt_pwpQdsMTj5A-60">
          <mxGeometry relative="1" as="geometry" />
        </mxCell>
        <mxCell id="kdzPkUjt_pwpQdsMTj5A-64" style="edgeStyle=orthogonalEdgeStyle;rounded=0;orthogonalLoop=1;jettySize=auto;html=1;entryX=0.5;entryY=1;entryDx=0;entryDy=0;" edge="1" parent="1" source="kdzPkUjt_pwpQdsMTj5A-59" target="kdzPkUjt_pwpQdsMTj5A-65">
          <mxGeometry relative="1" as="geometry">
            <mxPoint x="-710" y="1350" as="targetPoint" />
          </mxGeometry>
        </mxCell>
        <mxCell id="kdzPkUjt_pwpQdsMTj5A-59" value="state_middle" style="ellipse;whiteSpace=wrap;html=1;" vertex="1" parent="1">
          <mxGeometry x="-700" y="1484" width="120" height="80" as="geometry" />
        </mxCell>
        <mxCell id="kdzPkUjt_pwpQdsMTj5A-60" value="&lt;div&gt;Set data_out = data_dyn&lt;/div&gt;&lt;div&gt;set load = 1&lt;/div&gt;&lt;div&gt;Wait for the done&lt;/div&gt;&lt;div&gt;&lt;br&gt;&lt;/div&gt;&lt;div&gt;Repeat the cycle until no more data&lt;/div&gt;&lt;div&gt;&lt;br&gt;&lt;/div&gt;&lt;div&gt;end_packet = 0;&lt;/div&gt;" style="rounded=0;whiteSpace=wrap;html=1;align=left;verticalAlign=top;" vertex="1" parent="1">
          <mxGeometry x="-700" y="1600" width="120" height="190" as="geometry" />
        </mxCell>
        <mxCell id="kdzPkUjt_pwpQdsMTj5A-62" value="end_packet = 1" style="text;html=1;align=center;verticalAlign=middle;resizable=0;points=[];autosize=1;strokeColor=none;fillColor=none;" vertex="1" parent="1">
          <mxGeometry x="-790" y="1360" width="110" height="30" as="geometry" />
        </mxCell>
        <mxCell id="kdzPkUjt_pwpQdsMTj5A-67" style="edgeStyle=orthogonalEdgeStyle;rounded=0;orthogonalLoop=1;jettySize=auto;html=1;entryX=0;entryY=0.5;entryDx=0;entryDy=0;" edge="1" parent="1" source="kdzPkUjt_pwpQdsMTj5A-65" target="kdzPkUjt_pwpQdsMTj5A-50">
          <mxGeometry relative="1" as="geometry">
            <Array as="points">
              <mxPoint x="-790" y="1150" />
            </Array>
          </mxGeometry>
        </mxCell>
        <mxCell id="kdzPkUjt_pwpQdsMTj5A-69" style="edgeStyle=orthogonalEdgeStyle;rounded=0;orthogonalLoop=1;jettySize=auto;html=1;entryX=1;entryY=0.5;entryDx=0;entryDy=0;" edge="1" parent="1" source="kdzPkUjt_pwpQdsMTj5A-65" target="kdzPkUjt_pwpQdsMTj5A-68">
          <mxGeometry relative="1" as="geometry" />
        </mxCell>
        <mxCell id="kdzPkUjt_pwpQdsMTj5A-65" value="state_done" style="ellipse;whiteSpace=wrap;html=1;" vertex="1" parent="1">
          <mxGeometry x="-850" y="1260" width="120" height="80" as="geometry" />
        </mxCell>
        <mxCell id="kdzPkUjt_pwpQdsMTj5A-68" value="&lt;div&gt;const_select = 1 (EOF)&lt;/div&gt;&lt;div&gt;get data_const&lt;/div&gt;&lt;div&gt;&lt;br&gt;&lt;/div&gt;&lt;div&gt;data_out = data_const?&lt;/div&gt;&lt;div&gt;&lt;br&gt;&lt;/div&gt;" style="rounded=0;whiteSpace=wrap;html=1;align=left;verticalAlign=top;" vertex="1" parent="1">
          <mxGeometry x="-980" y="1215" width="120" height="190" as="geometry" />
        </mxCell>
        <mxCell id="kdzPkUjt_pwpQdsMTj5A-75" style="edgeStyle=orthogonalEdgeStyle;rounded=0;orthogonalLoop=1;jettySize=auto;html=1;exitX=0;exitY=0.5;exitDx=0;exitDy=0;entryX=1;entryY=0.5;entryDx=0;entryDy=0;" edge="1" parent="1" source="kdzPkUjt_pwpQdsMTj5A-73" target="kdzPkUjt_pwpQdsMTj5A-59">
          <mxGeometry relative="1" as="geometry" />
        </mxCell>
        <mxCell id="kdzPkUjt_pwpQdsMTj5A-73" value="state_waiting" style="ellipse;whiteSpace=wrap;html=1;" vertex="1" parent="1">
          <mxGeometry x="-510" y="1488" width="120" height="80" as="geometry" />
        </mxCell>
        <mxCell id="kdzPkUjt_pwpQdsMTj5A-77" value="done = 1" style="text;html=1;align=center;verticalAlign=middle;resizable=0;points=[];autosize=1;strokeColor=none;fillColor=none;" vertex="1" parent="1">
          <mxGeometry x="-575" y="1558" width="70" height="30" as="geometry" />
        </mxCell>
      </root>
    </mxGraphModel>
  </diagram>
</mxfile>
